HIERARCHY
ROOT hip
{
	OFFSET 0.000000 0.000000 0.000000 
	CHANNELS 6 Xposition Yposition Zposition Xrotation Zrotation Yrotation
	JOINT abdomen
	{
		OFFSET 0.000000 3.402643 0.000000 
		CHANNELS 3 Xrotation Zrotation Yrotation
		JOINT chest
		{
			OFFSET 0.000000 8.438565 -0.680529 
			CHANNELS 3 Xrotation Zrotation Yrotation
			JOINT neck
			{
				OFFSET 0.000000 10.207942 -0.272212 
				CHANNELS 3 Xrotation Zrotation Yrotation
				JOINT head
				{
					OFFSET 0.000000 3.130431 0.000000 
					CHANNELS 3 Xrotation Zrotation Yrotation
					End Site
					{
						OFFSET 0.000000 3.130435 0.000000 
					}
				}
			}
			JOINT lCollar
			{
				OFFSET 3.470700 6.669187 -0.816635 
				CHANNELS 3 Yrotation Zrotation Xrotation
				JOINT lShldr
				{
					OFFSET 3.198488 0.000000 0.000000 
					CHANNELS 3 Zrotation Yrotation Xrotation
					JOINT lForeArm
					{
						OFFSET 10.139888 0.000000 0.000000 
						CHANNELS 3 Yrotation Zrotation Xrotation
						JOINT lHand
						{
							OFFSET 8.370511 0.000000 0.000000 
							CHANNELS 3 Zrotation Yrotation Xrotation
							End Site
							{
								OFFSET 4.083176 0.000000 0.000000 
							}
						}
					}
				}
			}
			JOINT rCollar
			{
				OFFSET -3.470700 6.669187 -0.816635 
				CHANNELS 3 Yrotation Zrotation Xrotation
				JOINT rShldr
				{
					OFFSET -3.198488 0.000000 0.000000 
					CHANNELS 3 Zrotation Yrotation Xrotation
					JOINT rForeArm
					{
						OFFSET -10.139888 0.000000 0.000000 
						CHANNELS 3 Yrotation Zrotation Xrotation
						JOINT rHand
						{
							OFFSET -8.370511 0.000000 0.000000 
							CHANNELS 3 Zrotation Yrotation Xrotation
							End Site
							{
								OFFSET -4.083176 0.000000 0.000000 
							}
						}
					}
				}
			}
		}
	}
	JOINT lThigh
	{
		OFFSET 5.308129 -1.633274 1.361059 
		CHANNELS 3 Xrotation Zrotation Yrotation
		JOINT lShin
		{
			OFFSET -2.041588 -20.007561 0.000000 
			CHANNELS 3 Xrotation Zrotation Yrotation
			JOINT lFoot
			{
				OFFSET 0.000000 -19.190928 -1.224953 
				CHANNELS 3 Xrotation Yrotation Zrotation
				End Site
				{
					OFFSET 0.000000 -2.449906 4.627600 
				}
			}
		}
	}
	JOINT rThigh
	{
		OFFSET -5.308129 -1.633274 1.361059 
		CHANNELS 3 Xrotation Zrotation Yrotation
		JOINT rShin
		{
			OFFSET 2.041588 -20.007561 0.000000 
			CHANNELS 3 Xrotation Zrotation Yrotation
			JOINT rFoot
			{
				OFFSET 0.000000 -19.190928 -1.224953 
				CHANNELS 3 Xrotation Yrotation Zrotation
				End Site
				{
					OFFSET 0.000000 -2.449906 4.627600 
				}
			}
		}
	}
}
MOTION
Frames: 15
Frame Time: 0.033333
0.000000 39.589993 -6.366426 -29.189451 -0.771484 11.025260 8.232022 -8.227854 -5.660494 -18.583982 8.144533 -10.379477 -13.050249 -1.680275 -0.269281 30.361332 0.087891 -0.517563 2.000000 -2.000000 0.000000 -52.929691 -9.326172 -36.357418 -52.738586 -53.912594 -1.278903 -32.428703 -32.049633 9.261059 -2.000000 2.000000 0.000000 -42.441406 -60.517578 79.386032 62.181160 49.242184 11.389010 15.611097 11.611794 -4.004017 55.186951 11.502113 1.008846 32.141823 -3.203043 -2.643205 -51.053867 -6.574350 -0.351084 -50.083622 -5.760841 -1.120998 72.442650 2.109928 5.647681 0.232795 -9.569734 3.310042 
0.000000 38.546993 -5.798248 -27.949217 -0.722656 13.867065 4.699832 -8.105729 -5.625090 -24.726563 8.173829 -11.893144 -18.752541 -1.702116 -0.740061 32.861332 -0.048828 -0.537118 2.000000 -2.000000 0.000000 -68.623047 -16.386717 -34.863277 -48.635899 -56.532394 10.348832 -37.058327 -24.495716 11.053195 -2.000000 2.000000 0.000000 -77.060547 -62.910152 128.965912 44.446442 56.572636 13.495090 16.361094 11.081347 1.262529 57.423306 14.636901 2.343134 31.109550 -2.817232 -2.626222 -46.875015 -8.328559 -1.484049 -27.697197 -3.465852 -1.063154 48.534237 3.095567 3.286029 -7.242802 -12.888783 2.392817 
0.000000 38.948589 -6.388665 -11.455077 -0.361328 12.753846 5.901096 -8.477904 -5.830132 -33.085938 8.759767 -11.523438 -17.707054 -1.461936 -0.588729 12.568359 0.214844 -0.429688 2.000000 -2.000000 0.000000 -70.742188 -12.060548 -28.320311 -34.534943 -59.449726 13.884446 -34.571045 -21.396297 9.167266 -2.000000 2.000000 0.000000 -20.878906 -62.148438 71.552734 34.935535 45.372017 7.355556 18.333818 11.123218 7.966398 35.153358 11.776534 0.907122 37.690884 -3.463541 -3.143047 -45.143524 -10.746531 -1.191730 -44.533230 -6.034382 0.615450 54.309620 2.646330 3.289312 -8.541181 -11.625813 2.050217 
0.000000 37.032291 -5.798259 15.996095 0.000000 8.593750 14.548229 -9.082882 -6.165897 -33.183594 9.404297 -8.123405 -18.790173 -0.993580 -0.234874 -15.820313 0.390625 -0.234375 2.000000 -2.000000 0.000000 -49.013672 -8.730469 -35.263676 -33.926872 -42.100056 12.407328 -28.866510 -20.705547 5.359518 -2.000000 2.000000 0.000000 48.447266 -53.310547 -11.384785 48.375412 22.715483 2.441576 19.785917 13.975620 2.629318 2.067160 4.972624 -0.623875 48.075638 -4.983101 -4.561630 -46.299931 -8.720121 1.919012 -76.012016 -8.446782 1.283545 64.692291 2.715670 5.024898 -11.288342 -6.357675 -1.109293 
0.000000 30.213078 -2.281993 44.326172 0.039063 3.759773 30.778469 -9.572493 -6.448217 -16.718750 9.238281 -1.531636 -28.886932 -0.456992 -0.148147 -33.603516 0.068359 -0.039063 2.000000 -2.000000 0.000000 -4.248047 -20.126953 -65.712898 -64.133736 5.408785 10.754286 -24.993652 -19.589554 2.052736 -2.000000 2.000000 0.000000 61.308590 -48.105469 -40.185543 91.161247 -0.573665 8.389556 19.772635 19.553364 -22.744001 -27.537800 3.388412 0.344449 68.675415 -6.656518 -8.220405 -24.292793 -1.750977 7.770753 -111.147255 -9.169847 -0.660011 93.218842 3.818463 10.625172 -30.486635 -1.303016 -7.931055 
0.000000 25.540766 0.260427 56.933594 0.000000 1.914063 45.723747 -9.790432 -6.564588 3.867189 7.597657 4.893869 -32.177731 -0.137782 -0.127329 -39.384766 -0.126953 0.029297 2.000000 -2.000000 0.000000 23.271486 -41.484379 -87.848267 -87.139114 30.463367 10.109223 -22.923489 -17.989319 -0.574671 -2.000000 2.000000 0.000000 52.548828 -39.785160 -31.461323 130.942459 -21.697067 19.241039 22.871996 17.150433 -41.096760 -35.258820 4.950500 1.444741 78.465370 -7.029172 -9.661583 1.784755 3.057755 7.984017 -116.910049 -12.665599 -2.886829 112.722473 4.941556 14.722847 -52.584412 6.401789 -12.096628 
0.000000 29.544044 -1.854193 42.324219 0.039063 5.292976 50.784954 -9.672887 -6.487535 14.628906 6.455078 8.710938 -14.736393 -0.222082 0.033601 -36.064449 0.371094 -0.097593 2.000000 -2.000000 0.000000 4.833984 -57.490234 -76.551201 -69.072090 -9.834154 10.634851 -21.429195 -16.548464 -3.040364 -2.000000 2.000000 0.000000 62.675781 -21.621094 -14.017269 137.005692 -38.629345 26.558809 32.195099 -0.529879 -27.499565 -28.542393 4.979926 0.871726 89.882294 -4.639228 -9.690057 16.591396 4.599606 8.363574 -88.693535 -12.860053 -2.974866 106.723846 4.795242 13.226597 -57.519203 4.635820 -10.886035 
0.000000 37.032291 -5.798259 15.996095 0.000000 8.593750 47.269634 -9.363660 -6.336953 15.390626 6.796876 11.299984 7.021457 -0.209824 0.179898 -26.191408 0.742188 -0.175781 2.000000 -2.000000 0.000000 -31.484375 -59.101559 -51.718754 -47.829948 -57.077538 12.186269 -19.906502 -15.399232 -6.267179 -2.000000 2.000000 0.000000 77.519531 -5.839843 0.038071 123.770485 -44.591194 27.829979 39.154118 -16.627682 -0.697585 -21.114441 6.110461 0.059376 101.886154 -1.829176 -9.532242 24.866257 6.606905 8.859444 -46.251587 -4.960071 -1.532359 85.760033 4.404157 9.247554 -51.514626 -6.676168 -8.737362 
0.000000 41.493134 -8.014489 -3.857421 -0.312500 6.581978 38.860500 -9.045384 -6.266476 9.316407 8.300782 13.800237 14.521389 0.313046 0.110665 -12.558594 0.263672 0.039107 2.000000 -2.000000 0.000000 -62.197266 -39.814453 -29.042969 -62.836128 -51.222912 13.305458 -18.176695 -14.583944 -9.972248 -2.000000 2.000000 0.000000 75.908203 -3.730469 3.017578 111.081406 -33.591965 23.015591 35.811657 -13.668910 15.178338 -25.355642 6.677949 0.757903 107.746490 -1.780934 -10.328583 35.960861 9.131082 6.109432 -10.609630 0.829938 0.112175 65.125793 4.555606 6.829640 -49.289101 -7.939010 -8.042101 
0.000000 42.846569 -8.537641 -15.468749 -0.537109 1.288973 28.812914 -8.926825 -6.303837 0.283205 10.058594 15.577879 10.672697 0.928981 -0.061533 0.966797 -0.429688 0.332032 2.000000 -2.000000 0.000000 -71.455078 -7.060547 -19.727764 -87.606194 -27.190887 7.568617 -17.155542 -13.968089 -8.813269 -2.000000 2.000000 0.000000 60.859375 -7.431641 -4.962201 95.134842 -7.591805 16.312441 28.394171 3.944226 18.389452 -45.270489 5.673486 1.503674 110.342964 -2.562146 -11.010118 41.974506 9.004101 0.703274 15.850383 0.107920 1.652762 49.846092 4.494290 5.397496 -50.219757 -2.829083 -6.204352 
0.000000 42.460217 -8.181473 -21.494141 -0.332031 -4.052734 19.790066 -9.116347 -6.439023 -8.115234 11.347656 16.132814 2.683632 1.204043 -0.201910 11.542970 -0.615234 0.497942 2.000000 -2.000000 0.000000 -55.195313 26.806641 -18.979969 -89.291290 -28.080414 -7.687723 -17.510187 -13.395084 0.483982 -2.000000 2.000000 0.000000 42.841793 -6.904296 -20.439451 70.864754 26.917990 11.951494 24.936693 25.716351 13.645874 -72.266273 6.180541 0.731067 100.909439 -2.853918 -9.557355 41.142059 6.946198 -2.848121 31.675268 -3.680152 1.803216 41.577557 3.414262 3.914952 -52.076397 1.569401 -3.135748 
0.000000 41.059765 -7.283765 -25.839844 0.000000 -8.789062 12.592858 -9.342649 -6.754784 -14.482422 12.128906 16.367188 -6.535663 1.367619 -0.295790 21.962891 -0.615234 0.576172 2.000000 -2.000000 0.000000 -13.300781 53.603516 7.119141 -75.645309 -35.021877 -15.323466 -18.031898 -12.799252 7.805705 -2.000000 2.000000 0.000000 36.386715 -0.458984 -34.707027 51.588482 53.295124 10.121601 26.852850 38.700275 8.900447 -72.415009 7.987162 -0.233562 79.627937 -3.162346 -6.919326 28.443764 6.789877 -3.501001 45.397110 -8.436039 0.535391 35.747105 2.067574 2.732176 -56.634712 4.430958 0.374762 
0.000000 39.344131 -6.195717 -30.449215 0.058594 -12.724597 7.585254 -9.372060 -7.233140 -18.857424 12.568360 16.914064 -14.828110 1.720496 -0.378791 33.095707 -0.800781 0.654160 2.000000 -2.000000 0.000000 52.392578 64.355469 84.580078 -61.541302 -23.948271 -1.542133 -17.565569 -12.182901 4.466254 -2.000000 2.000000 0.000000 50.693359 10.253905 -39.529510 48.625313 58.853371 10.001262 32.772293 34.296215 10.252969 -50.364063 6.258729 0.278995 70.829735 -2.897492 -6.347507 8.254237 12.448139 -5.278987 56.622803 -13.464161 -1.799214 32.581123 1.364624 2.631118 -58.123920 6.018240 3.121412 
0.000000 38.546993 -5.798248 -27.792969 0.039063 -14.589835 5.226110 -9.386389 -7.530236 -24.736330 12.812501 16.015627 -18.725626 1.936731 -0.450998 32.675785 -0.927734 0.595545 2.000000 -2.000000 0.000000 77.382813 63.056641 128.426666 -49.734756 -12.062181 14.095880 -17.356422 -11.571423 0.674199 -2.000000 2.000000 0.000000 69.414063 16.337891 -35.143738 46.876762 56.915485 10.820888 36.924152 23.923891 12.724220 -27.152725 3.543603 0.958445 47.752476 -3.316255 -4.344777 3.832745 16.434259 -4.781609 56.683044 -15.837731 -3.269412 32.051788 1.438081 2.865369 -58.206940 7.650536 4.803407 
0.000000 39.017559 -6.438438 -10.830078 0.087891 -13.320313 6.560476 -9.550150 -7.343205 -33.398441 12.724610 12.343752 -17.005659 1.697122 -0.533285 11.240234 -0.664063 0.302621 2.000000 -2.000000 0.000000 18.095703 60.732422 69.793671 -42.058849 -17.596678 11.535832 -18.587166 -11.460152 5.118521 -2.000000 2.000000 0.000000 72.099617 11.962891 -27.917896 33.659054 58.841164 11.800428 34.505547 20.216097 10.539165 -44.563885 5.965547 -0.389427 53.171009 -2.906056 -4.013634 -0.266065 13.952645 -3.891000 33.234226 -12.544917 -1.712567 41.168381 1.948205 3.249003 -55.526157 10.193784 4.197799 
